<svg width="100%" height="100%" viewBox="0 0 24 24" version="1.1" xmlns="http://www.w3.org/2000/svg" xmlns:xlink="http://www.w3.org/1999/xlink" xml:space="preserve" xmlns:serif="http://www.serif.com/" style="fill-rule:evenodd;clip-rule:evenodd;stroke-linecap:round;stroke-linejoin:round;stroke-miterlimit:1.5;">
    <g transform="matrix(1,0,0,1,0,-31.976857)">
        <g id="Image-Compression" serif:id="Image Compression" transform="matrix(0.24,0,0,0.24,-0.48,32.216857)">
            <rect x="2" y="-1" width="100" height="100" style="fill:none;"/>
            <clipPath id="_clip1">
                <rect x="2" y="-1" width="100" height="100"/>
            </clipPath>
            <g clip-path="url(#_clip1)">
                <g transform="matrix(50,0,0,50,2,-1)">
                    <rect x="0" y="0" width="2" height="2" style="fill:rgb(249,132,74);"/>
                </g>
                <g transform="matrix(4.166667,0,0,4.166667,2,-134.236906)">
                    <path d="M10,49C10,46.116 14.541,44 17,44L17,49L10,49" style="fill-opacity:0.4;"/>
                </g>
                <g transform="matrix(4.166667,0,0,4.166667,2,-134.236906)">
                    <path d="M5,46L5,51L10,51" style="fill:none;stroke:black;stroke-opacity:0.4;stroke-width:1.04px;"/>
                </g>
                <g transform="matrix(-4.166667,-0,0,-4.166667,102,232.429761)">
                    <path d="M5,46L5,51L10,51" style="fill:none;stroke:black;stroke-opacity:0.4;stroke-width:1.04px;"/>
                </g>
                <g transform="matrix(4.166667,0,0,4.166667,2,-134.236906)">
                    <path d="M11.118,45.877C10.387,45.258 9.123,44.521 7,44.521C6.713,44.521 6.479,44.287 6.479,44C6.479,43.713 6.713,43.479 7,43.479C9.608,43.479 11.099,44.449 11.926,45.196C11.633,45.412 11.363,45.641 11.118,45.877Z"/>
                </g>
                <g transform="matrix(4.166667,0,0,4.166667,-2.166667,-134.236906)">
                    <circle cx="12" cy="42" r="1.521" style="fill-opacity:0.4;"/>
                </g>
                <g transform="matrix(4.861111,0,0,4.166667,-9.805556,-134.236906)">
                    <path d="M11.446,49C11.446,49.287 11.246,49.521 11,49.521C10.754,49.521 10.554,49.287 10.554,49C10.554,48.119 10.994,47.032 11.803,46.057C12.941,44.686 14.802,43.519 16.993,43.479C17.239,43.475 17.442,43.704 17.446,43.992C17.45,44.279 17.253,44.516 17.007,44.521C15.081,44.556 13.445,45.577 12.445,46.782C11.828,47.525 11.446,48.328 11.446,49Z"/>
                </g>
                <g transform="matrix(4.166667,0,0,4.166667,2,-134.236906)">
                    <path d="M5,39.521C4.713,39.521 4.479,39.287 4.479,39C4.479,38.713 4.713,38.479 5,38.479L17,38.479C17.288,38.479 17.521,38.712 17.521,39L17.521,51C17.521,51.287 17.287,51.521 17,51.521C16.713,51.521 16.479,51.287 16.479,51L16.479,39.521L5,39.521Z"/>
                </g>
                <g transform="matrix(-4.166667,0,-0,-4.166667,102,232.429761)">
                    <path d="M5,39.521C4.713,39.521 4.479,39.287 4.479,39C4.479,38.713 4.713,38.479 5,38.479L17,38.479C17.288,38.479 17.521,38.712 17.521,39L17.521,51C17.521,51.287 17.287,51.521 17,51.521C16.713,51.521 16.479,51.287 16.479,51L16.479,39.521L5,39.521Z"/>
                </g>
            </g>
        </g>
        <g id="Colors">
        </g>
    </g>
</svg>
