<svg width="169px" height="169px" viewBox="0 0 705 705" version="1.1" xmlns="http://www.w3.org/2000/svg"
     xmlns:xlink="http://www.w3.org/1999/xlink" xml:space="preserve" xmlns:serif="http://www.serif.com/"
     style="fill-rule:evenodd;clip-rule:evenodd;stroke-linejoin:round;stroke-miterlimit:2;"><g><rect x="0.017" y="0.024" width="704.198" height="704.146" style="fill:#7986cb;"/></g>
    <path d="M531.769,337.11c-12.353,0 -22.461,-10.107 -22.461,-22.461l0,-97.33c0,-12.353 -10.107,-22.461 -22.461,-22.461l-97.33,0c-12.353,0 -22.461,-10.107 -22.461,-22.461c0,-12.353 10.107,-22.461 22.461,-22.461l97.33,0c37.135,0 67.382,30.247 67.382,67.382l0,97.33c0,12.353 -10.107,22.461 -22.461,22.461Zm-127.277,209.633l0,-89.843c0,-28.899 23.509,-52.408 52.408,-52.408l89.843,0c12.353,0 22.461,10.107 22.461,22.461c0,12.353 -10.107,22.461 -22.461,22.461l-65.585,0l103.918,103.918c4.417,4.417 6.738,10.257 6.588,16.471c-0.225,6.214 -2.845,11.904 -7.487,16.097c-8.685,7.861 -23.06,6.963 -32.044,-2.021l-102.72,-102.72l0,65.585c0,12.353 -10.107,22.461 -22.461,22.461c-12.353,0 -22.461,-10.107 -22.461,-22.461Zm-232.093,-179.685c12.353,0 22.461,10.107 22.461,22.461l0,97.33c0,12.353 10.107,22.461 22.461,22.461l97.33,0c12.353,0 22.461,10.107 22.461,22.461c0,12.353 -10.107,22.461 -22.461,22.461l-97.33,0c-37.135,0 -67.382,-30.247 -67.382,-67.382l0,-97.33c0,-12.353 10.107,-22.461 22.461,-22.461Zm127.277,-209.633l0,89.843c0,28.899 -23.509,52.408 -52.408,52.408l-89.843,0c-12.353,0 -22.461,-10.107 -22.461,-22.461c0,-12.353 10.107,-22.461 22.461,-22.461l65.585,0l-103.918,-103.918c-4.417,-4.417 -6.738,-10.257 -6.588,-16.471c0.225,-6.214 2.845,-11.904 7.487,-16.097c8.685,-7.861 23.06,-6.963 32.044,2.021l102.72,102.72l0,-65.585c0,-12.353 10.107,-22.461 22.461,-22.461c12.353,0 22.461,10.107 22.461,22.461Z"
          style="fill:#fff;"/>
</svg>